<svg xmlns="http://www.w3.org/2000/svg" width="24" height="24" fill="none" viewBox="0 0 24 24" id="logout"><path fill="#5E94FF" fill-rule="evenodd" d="M14.75 12C14.75 11.5858 14.4142 11.25 14 11.25H2C1.58579 11.25 1.25 11.5858 1.25 12C1.25 12.4142 1.58579 12.75 2 12.75H14C14.4142 12.75 14.75 12.4142 14.75 12Z" clip-rule="evenodd"></path><path fill="#5E94FF" fill-rule="evenodd" d="M6.03033 7.96967C5.73744 7.67678 5.26256 7.67678 4.96967 7.96967L1.46967 11.4697C1.17678 11.7626 1.17678 12.2374 1.46967 12.5303L4.96967 16.0303C5.26256 16.3232 5.73744 16.3232 6.03033 16.0303 6.32322 15.7374 6.32322 15.2626 6.03033 14.9697L3.06066 12 6.03033 9.03033C6.32322 8.73744 6.32322 8.26256 6.03033 7.96967zM14.5956 5.25C12.017 5.25 9.77484 6.73848 8.66955 8.9258 8.48274 9.29549 8.0316 9.44375 7.66191 9.25693 7.29221 9.07012 7.14396 8.61898 7.33077 8.24929 8.67788 5.58343 11.422 3.75 14.5956 3.75 19.1083 3.75 22.7502 7.45274 22.7502 12 22.7502 16.5473 19.1083 20.25 14.5956 20.25 11.422 20.25 8.67788 18.4166 7.33077 15.7507 7.14396 15.381 7.29221 14.9299 7.66191 14.7431 8.0316 14.5563 8.48274 14.7045 8.66955 15.0742 9.77484 17.2615 12.017 18.75 14.5956 18.75 18.2618 18.75 21.2502 15.737 21.2502 12 21.2502 8.26299 18.2618 5.25 14.5956 5.25z" clip-rule="evenodd"></path></svg>